#!OML:ASF H:\charlestonDancing\Project 1\Capture day 1\Session 1\femaleDancer.ASF
:FULLY-SPECIFIED
:DEGREES
69
root -1.15952 17.587 5.20741 516.428 -82.732 -512.738
lowerback 24.8216 -2.03064 7.31767
upperback 7.17886 -1.4965 -0.268161
thorax -5.97123 -1.0061 -4.02143
lowerneck 7.37644 14.8758 13.9789
upperneck -11.0218 19.9114 -20.6146
head -0.816565 10.4925 -8.46243
rclavicle -1.88845e-015 -4.17448e-015
rhumerus -54.4898 -25.2362 -44.5471
rradius 96.5958
rwrist -48.7063
rhand -10.4943 -29.8963
rfingers 7.12502
rthumb 15.5076 -59.2944
lclavicle -1.88845e-015 -4.17448e-015
lhumerus -89.2969 20.7762 12.9312
lradius 12.3208
lwrist -44.4903
lhand -10.4658 28.7944
lfingers 7.12502
lthumb 15.535 58.1904
rfemur -19.6766 3.29148 27.5879
rtibia 36.8862
rfoot -21.5622 3.54999
rtoes -13.4156
lfemur -45.6785 -1.37879 -15.4443
ltibia 57.0535
lfoot -2.28873 -6.55678
ltoes -17.9674
70
root -1.2209 17.6466 5.23448 520.546 -82.5761 -516.155
lowerback 24.0842 -1.54361 7.50157
upperback 6.30627 -0.749389 -0.180604
thorax -6.47893 -0.64941 -4.25359
lowerneck 8.73669 14.3472 13.2019
upperneck -10.4105 19.3256 -19.7684
head -1.14168 10.2402 -8.26633
rclavicle -6.66395e-015 3.01749e-015
rhumerus -56.2707 -25.1782 -42.8525
rradius 95.5326
rwrist -48.5464
rhand -10.2112 -29.56
rfingers 7.12502
rthumb 15.7803 -58.9367
lclavicle -6.66395e-015 3.01749e-015
lhumerus -84.0625 20.1043 23.0196
lradius 13.9275
lwrist -36.132
lhand -13.0376 27.6136
lfingers 7.12502
lthumb 13.057 57.1849
rfemur -19.9489 3.11921 26.9536
rtibia 36.3499
rfoot -21.9232 4.20225
rtoes -16.0803
lfemur -44.9231 -0.571051 -16.6607
ltibia 59.3209
lfoot -2.52171 -6.12147
ltoes -19.5286
71
root -1.28458 17.6901 5.25993 523.88 -82.3438 -518.76
lowerback 23.304 -1.11269 7.84487
upperback 6.51683 -0.204393 -0.316756
thorax -5.77454 -0.357179 -4.75657
lowerneck 5.6991 14.4745 12.228
upperneck -8.86301 19.305 -19.0438
head -0.384102 10.0708 -7.56231
rclavicle 2.08724e-015 2.48481e-015
rhumerus -56.0698 -26.9612 -42.4428
rradius 94.2517
rwrist -48.1814
rhand -10.0323 -29.3343
rfingers 7.12502
rthumb 15.9526 -58.6973
lclavicle 2.08724e-015 2.48481e-015
lhumerus -77.8434 20.6319 32.0504
lradius 15.76
lwrist -28.9852
lhand -14.7877 26.6382
lfingers 7.12502
lthumb 11.3695 56.3099
rfemur -20.3481 2.88506 26.4628
rtibia 35.9715
rfoot -22.0046 4.94157
rtoes -17.8104
lfemur -44.0939 0.292912 -17.75
ltibia 60.8148
lfoot -2.60446 -5.95046
ltoes -21.4232
72
root -1.34616 17.7289 5.28288 526.771 -82.1048 -520.973
lowerback 22.5327 -1.04572 7.6769
upperback 5.97931 -0.148043 -0.466826
thorax -5.971 -0.326192 -4.83948
lowerneck 5.88236 14.281 12.0793
upperneck -8.02821 19.1473 -18.4103
head -0.283868 9.9689 -7.34857
rclavicle 2.42269e-014 9.88954e-015
rhumerus -56.1796 -26.659 -42.5057
rradius 93.2814
rwrist -48.1422
rhand -10.0324 -29.1093
rfingers 7.12502
rthumb 15.9524 -58.4724
lclavicle 2.42269e-014 9.88954e-015
lhumerus -73.7014 19.3828 39.1706
lradius 18.067
lwrist -22.3741
lhand -15.104 26.6183
lfingers 7.12502
lthumb 11.0644 56.3067
rfemur -20.7664 2.61235 26.0459
rtibia 35.7572
rfoot -22.2058 5.51542
rtoes -18.8558
lfemur -43.0242 1.12711 -18.7636
ltibia 61.3961
lfoot -2.55261 -5.94707
ltoes -23.4946
73
root -1.40827 17.7529 5.30324 528.583 -81.9425 -522.241
lowerback 21.8598 -0.968026 7.64038
upperback 5.6656 -0.067096 -0.547108
thorax -5.96012 -0.279416 -4.92598
lowerneck 5.1312 13.9765 11.565
upperneck -6.85955 18.7594 -17.6168
head -0.0183388 9.71027 -6.96101
rclavicle 1.06847e-015 -1.16786e-014
rhumerus -56.1143 -26.7065 -42.4409
rradius 92.5551
rwrist -48.351
rhand -10.0552 -28.7606
rfingers 7.12502
rthumb 15.9304 -58.1255
lclavicle 1.06847e-015 -1.16786e-014
lhumerus -69.6601 18.4761 44.5374
lradius 20.4796
lwrist -17.7175
lhand -18.1286 24.5124
lfingers 7.12502
lthumb 8.14622 54.3354
rfemur -21.1364 2.26028 25.7705
rtibia 35.7928
rfoot -22.8319 5.55598
rtoes -20.1481
lfemur -41.6896 1.91394 -19.6278
ltibia 61.1582
lfoot -2.11879 -5.89904
ltoes -25.2729
74
root -1.46932 17.7643 5.32477 531.09 -81.9594 -524.358
lowerback 21.1821 -1.21736 7.09516
upperback 4.96219 -0.476719 -0.657975
thorax -6.4432 -0.4818 -4.62652
lowerneck 6.13575 13.4316 11.2165
upperneck -6.06961 18.1641 -16.4486
head -0.191952 9.4132 -6.67201
rclavicle -1.34801e-014 -1.59525e-014
rhumerus -56.1218 -25.2479 -42.7708
rradius 92.0963
rwrist -48.68
rhand -10.0258 -28.6757
rfingers 7.12502
rthumb 15.9588 -58.0383
lclavicle -1.34801e-014 -1.59525e-014
lhumerus -67.3856 17.2838 48.2781
lradius 23.3325
lwrist -13.6317
lhand -19.5697 22.9582
lfingers 7.12502
lthumb 6.75524 52.8304
rfemur -21.5203 1.7612 25.3361
rtibia 36.1335
rfoot -23.5407 5.66057
rtoes -21.1264
lfemur -40.1314 2.61191 -20.633
ltibia 60.2255
lfoot -1.8433 -7.00129
ltoes -25.0737
75
root -1.52373 17.7529 5.34853 533.158 -82.0567 -526.105
lowerback 20.5839 -0.942037 7.30219
upperback 5.39897 -0.165419 -0.712017
thorax -5.60837 -0.299155 -4.88046
lowerneck 1.19651 12.529 9.91461
upperneck -3.07014 16.788 -15.0236
head 1.04737 8.47091 -5.66852
rclavicle 1.09332e-015 -6.90777e-015
rhumerus -55.8144 -26.7573 -42.1058
rradius 91.6441
rwrist -48.745
rhand -9.86432 -28.6915
rfingers 7.12502
rthumb 16.1143 -58.0415
lclavicle 1.09332e-015 -6.90777e-015
lhumerus -61.8269 16.6887 52.8541
lradius 25.7689
lwrist -10.8374
lhand -20.6059 21.0394
lfingers 7.12502
lthumb 5.75486 50.9413
rfemur -22.107 1.22622 24.9526
rtibia 36.9279
rfoot -23.8863 5.86497
rtoes -22.0545
lfemur -38.5657 3.26648 -21.5687
ltibia 58.8535
lfoot -0.985578 -7.50971
ltoes -23.7247
76
root -1.57488 17.7113 5.37281 532.169 -82.1244 -524.942
lowerback 19.9859 -1.07726 7.37907
upperback 5.23363 -0.341811 -0.654694
thorax -5.50018 -0.376987 -4.81635
lowerneck 0.343173 11.5096 8.61047
upperneck -1.81269 15.4192 -13.2562
head 1.13182 7.73219 -4.96632
rclavicle -7.51655e-015 4.06018e-014
rhumerus -55.6838 -26.3983 -41.9566
rradius 91.2961
rwrist -48.682
rhand -9.59753 -28.5807
rfingers 7.12502
rthumb 16.3712 -57.9097
lclavicle -7.51655e-015 4.06018e-014
lhumerus -58.483 15.5923 56.116
lradius 28.946
lwrist -7.56474
lhand -21.5856 18.9682
lfingers 7.12502
lthumb 4.80889 48.8936
rfemur -22.834 0.771289 25.0317
rtibia 38.3464
rfoot -23.8577 5.89794
rtoes -22.6427
lfemur -36.9021 3.98252 -22.0316
ltibia 57.2293
lfoot -0.379703 -7.27907
ltoes -21.6144
77
root -1.62264 17.6414 5.39878 530.437 -82.1266 -523.282
lowerback 19.61 -1.06417 7.67078
upperback 5.37373 -0.305959 -0.601251
thorax -5.14301 -0.345867 -4.93209
lowerneck -1.55135 10.1654 6.93713
upperneck -0.296293 13.5901 -10.7657
head 1.53515 6.75014 -4.38703
rclavicle 1.1455e-014 1.93815e-014
rhumerus -55.5585 -26.7755 -41.5715
rradius 91.0789
rwrist -48.572
rhand -9.3817 -28.7356
rfingers 7.12502
rthumb 16.579 -58.0474
lclavicle 1.1455e-014 1.93815e-014
lhumerus -54.3885 14.5594 59.1549
lradius 32.5816
lwrist -4.13024
lhand -21.6283 17.8118
lfingers 7.12502
lthumb 4.76768 47.7382
rfemur -23.6951 0.523163 25.19
rtibia 40.5282
rfoot -23.7624 6.05408
rtoes -21.7994
lfemur -35.0463 4.72368 -22.345
ltibia 55.4385
lfoot -1.51436 -7.78614
ltoes -19.5453
78
root -1.66514 17.5468 5.43194 530.041 -82.1706 -523.138
lowerback 19.2949 -1.52463 7.11533
upperback 4.87946 -0.97783 -0.579107
thorax -5.60743 -0.683001 -4.42979
lowerneck -0.07345 8.9551 6.29078
upperneck 0.213246 12.0291 -9.45944
head 1.13868 6.00539 -3.96849
rclavicle 2.83268e-014 -2.58917e-014
rhumerus -55.0887 -24.9008 -42.039
rradius 91.0161
rwrist -48.7218
rhand -9.43553 -29.2746
rfingers 7.12502
rthumb 16.5272 -58.5908
lclavicle 2.83268e-014 -2.58917e-014
lhumerus -52.8307 13.9128 60.6302
lradius 37.0523
lwrist -0.80043
lhand -21.72 18.2311
lfingers 7.12502
lthumb 4.6791 48.1595
rfemur -24.8657 0.296675 25.0566
rtibia 43.5224
rfoot -23.5776 6.72359
rtoes -19.3007
lfemur -33.1731 5.22235 -22.7905
ltibia 53.5967
lfoot -5.37594 -9.34622
ltoes -13.5732
79
root -1.69814 17.4457 5.47768 530.778 -82.36 -524.201
lowerback 19.0432 -1.73234 6.99542
upperback 5.06482 -1.31313 -0.686144
thorax -5.31737 -0.833892 -4.39985
lowerneck -1.44796 7.43528 4.76936
upperneck 1.43664 9.9818 -7.67888
head 1.39643 4.94014 -3.08002
rclavicle 2.08227e-014 2.28602e-015
rhumerus -54.3485 -24.8524 -42.0683
rradius 90.9231
rwrist -48.9467
rhand -9.71002 -29.6199
rfingers 7.12502
rthumb 16.2629 -58.9578
lclavicle 2.08227e-014 2.28602e-015
lhumerus -49.2835 13.1745 62.784
lradius 41.1219
lwrist 0.793228
lhand -24.0673 17.572
lfingers 7.12502
lthumb 2.4124 47.5381
rfemur -26.4822 -0.157368 24.6196
rtibia 47.3207
rfoot -22.9734 6.85415
rtoes -22.8884
lfemur -31.479 5.19376 -23.3423
ltibia 51.878
lfoot -8.28443 -10.9955
ltoes -8.28651
